<svg xmlns="http://www.w3.org/2000/svg" viewBox="0 0 60 60">
                        <path d="m58.72 59.91h-18.72a1.25 1.25 0 0 1 0-2.5h18.72a1.25 1.25 0 0 1 0 2.5z"></path>
                        <path d="m20 59.91h-18.74a1.25 1.25 0 1 1 0-2.5h18.74a1.25 1.25 0 0 1 0 2.5z"></path>
                        <path
                            d="m37.06 52.84a1.26 1.26 0 0 1 -.88-2.14l13.25-13.23a1.25 1.25 0 0 1 1.77 1.76l-13.2 13.24a1.29 1.29 0 0 1 -.94.37z">
                        </path>
                        <path
                            d="m30 52.5a1.25 1.25 0 0 1 -1.25-1.25v-50a1.25 1.25 0 0 1 2.5 0v50a1.25 1.25 0 0 1 -1.25 1.25z">
                        </path>
                        <path
                            d="m26.16 50.67a1.24 1.24 0 0 1 -1.16-.77l-8.07-19.51a1.25 1.25 0 0 1 2.31-1l8.08 19.61a1.25 1.25 0 0 1 -.68 1.63 1.36 1.36 0 0 1 -.48.04z">
                        </path>
                        <path
                            d="m20.76 56.09a1.18 1.18 0 0 1 -.48-.1l-19.51-8.09a1.25 1.25 0 1 1 1-2.3l19.51 8.08a1.25 1.25 0 0 1 -.48 2.41z">
                        </path>
                        <path
                            d="m39.24 56.09a1.25 1.25 0 0 1 -.48-2.41l19.51-8.08a1.25 1.25 0 0 1 1 2.3l-19.55 8.1a1.18 1.18 0 0 1 -.48.09z">
                        </path>
                        <path
                            d="m33.82 50.67a1.31 1.31 0 0 1 -.47-.09 1.25 1.25 0 0 1 -.68-1.58l8.08-19.52a1.25 1.25 0 0 1 2.3 1l-8.05 19.42a1.25 1.25 0 0 1 -1.18.77z">
                        </path>
                        <path
                            d="m22.92 52.84a1.29 1.29 0 0 1 -.88-.37l-13.25-13.24a1.25 1.25 0 1 1 1.77-1.76l13.25 13.23a1.25 1.25 0 0 1 0 1.77 1.27 1.27 0 0 1 -.89.37z">
                        </path>
                        <circle cx="29.99" cy="57.5" r="2.5"></circle>
                        <circle cx="15.68" cy="24.37" r="1.87"></circle>
                        <circle cx="54.42" cy="33.12" r="1.87"></circle>
                    </svg>