<svg xmlns="http://www.w3.org/2000/svg" viewBox="0 0 250 193.89">
                        <path
                            d="m10.99 151.68c-3.04 0-5.5 2.46-5.5 5.5s2.46 5.5 5.5 5.5 5.5-2.46 5.5-5.5-2.46-5.5-5.5-5.5z">
                        </path>
                        <path
                            d="m239.63 151.68c-3.04 0-5.5 2.46-5.5 5.5s2.46 5.5 5.5 5.5 5.5-2.46 5.5-5.5-2.46-5.5-5.5-5.5z">
                        </path>
                        <path
                            d="m125.42 170.25 1.85-1.85c.24-.18.44-.38.62-.62l28.28-28.29c1.17-1.17 1.17-3.08 0-4.25s-3.08-1.17-4.25 0l-23.4 23.4v-152.53c0-1.66-1.35-3.01-3.01-3.01s-3.01 1.35-3.01 3.01v152.72l-23.58-23.58c-1.17-1.17-3.08-1.17-4.25 0s-1.17 3.08 0 4.25z">
                        </path>
                        <path
                            d="m223.15 158.9-97.73 24.5-97.76-24.5c-1.6-.4-3.24.58-3.65 2.18-.4 1.61.58 3.24 2.19 3.65l98.49 24.68.73.18 99.19-24.87c1.61-.4 2.59-2.03 2.18-3.65-.4-1.6-2.03-2.58-3.64-2.17z">
                        </path>
                    </svg>